<svg viewBox="0 0 16 16" fill="none" xmlns="http://www.w3.org/2000/svg">
<path d="M5.86698 7.99998C5.86698 6.82181 6.82181 5.86647 7.99998 5.86647C9.17814 5.86647 10.1335 6.82181 10.1335 7.99998C10.1335 9.17814 9.17814 10.1335 7.99998 10.1335C6.82181 10.1335 5.86698 9.17814 5.86698 7.99998ZM4.71365 7.99998C4.71365 9.81502 6.18494 11.2863 7.99998 11.2863C9.81502 11.2863 11.2863 9.81502 11.2863 7.99998C11.2863 6.18494 9.81502 4.71365 7.99998 4.71365C6.18494 4.71365 4.7137 6.18483 4.7137 7.99998M10.6484 4.58335C10.6484 4.73524 10.6934 4.88375 10.7777 5.01008C10.862 5.13641 10.982 5.23489 11.1223 5.29308C11.2626 5.35126 11.417 5.36653 11.566 5.33696C11.715 5.30738 11.8518 5.23429 11.9593 5.12693C12.0667 5.01957 12.1399 4.88275 12.1696 4.73379C12.1993 4.58482 12.1842 4.4304 12.1261 4.29004C12.068 4.14968 11.9696 4.0297 11.8434 3.94526C11.7171 3.86082 11.5687 3.81572 11.4168 3.81566H11.4164C11.2128 3.81575 11.0176 3.89665 10.8736 4.04059C10.7296 4.18453 10.6486 4.37974 10.6484 4.58335ZM5.41438 13.2095C4.7904 13.1811 4.45125 13.0771 4.22587 12.9893C3.92707 12.873 3.71387 12.7344 3.48972 12.5106C3.26556 12.2867 3.12681 12.0738 3.011 11.775C2.92314 11.5497 2.8192 11.2104 2.79084 10.5864C2.75981 9.91183 2.75361 9.70918 2.75361 8.00008C2.75361 6.29097 2.76032 6.08888 2.79084 5.41371C2.81925 4.78974 2.92396 4.45115 3.011 4.2252C3.12732 3.9264 3.26587 3.7132 3.48972 3.48905C3.71356 3.2649 3.92655 3.12615 4.22587 3.01033C4.45115 2.92247 4.7904 2.81854 5.41438 2.79017C6.08899 2.75914 6.29164 2.75295 7.99998 2.75295C9.70831 2.75295 9.91117 2.75955 10.5863 2.79027C11.2103 2.81869 11.5489 2.92339 11.7748 3.01043C12.0737 3.12625 12.2868 3.26531 12.511 3.48915C12.7352 3.713 12.8734 3.9265 12.9897 4.22531C13.0776 4.45059 13.1815 4.78984 13.2099 5.41381C13.2409 6.08899 13.2471 6.29107 13.2471 8.00018C13.2471 9.70929 13.2409 9.91137 13.2099 10.5865C13.1815 11.2105 13.077 11.5497 12.9897 11.7751C12.8734 12.0739 12.7348 12.2871 12.511 12.5107C12.2872 12.7343 12.0737 12.8731 11.7748 12.9894C11.5496 13.0773 11.2103 13.1812 10.5863 13.2096C9.91173 13.2406 9.70908 13.2468 7.99998 13.2468C6.29087 13.2468 6.08878 13.2406 5.41438 13.2096M5.36138 1.63873C4.68007 1.66976 4.2145 1.77779 3.80792 1.936C3.38711 2.09938 3.0304 2.31857 2.6742 2.6742C2.318 3.02984 2.09938 3.3866 1.936 3.80792C1.77779 4.21476 1.66976 4.68007 1.63873 5.36138C1.60719 6.04378 1.59998 6.26194 1.59998 7.99998C1.59998 9.73801 1.60719 9.95617 1.63873 10.6386C1.66976 11.3199 1.77779 11.7852 1.936 12.192C2.09938 12.6128 2.31806 12.9703 2.6742 13.3257C3.03035 13.6812 3.3866 13.9001 3.80792 14.0639C4.21527 14.2222 4.68007 14.3302 5.36138 14.3612C6.04414 14.3922 6.26194 14.4 7.99998 14.4C9.73801 14.4 9.95617 14.3928 10.6386 14.3612C11.3199 14.3302 11.7852 14.2222 12.192 14.0639C12.6128 13.9001 12.9695 13.6814 13.3257 13.3257C13.6819 12.9701 13.9001 12.6128 14.0639 12.192C14.2222 11.7852 14.3307 11.3199 14.3612 10.6386C14.3922 9.95566 14.3995 9.73801 14.3995 7.99998C14.3995 6.26194 14.3922 6.04378 14.3612 5.36138C14.3302 4.68001 14.2222 4.2145 14.0639 3.80792C13.9001 3.38711 13.6814 3.0304 13.3257 2.6742C12.9701 2.318 12.6128 2.09938 12.1925 1.936C11.7852 1.77779 11.3199 1.66925 10.6391 1.63873C9.95658 1.60755 9.73852 1.59998 8.00074 1.59998C6.26296 1.59998 6.04439 1.60719 5.36164 1.63873" fill="#1A1423"/>
</svg>
