<svg width="152" height="48" viewBox="0 0 152 48" fill="none" xmlns="http://www.w3.org/2000/svg">
<path d="M11.8609 35.5994C12.0613 32.8245 13.6008 16.8041 14.3627 9.21247C13.8982 9.38407 13.6221 9.4855 13.3459 9.58979C11.9333 10.1263 10.5313 10.6954 9.10186 11.1846C8.62333 11.3494 7.93151 11.727 7.61531 11.0642C7.3157 10.4344 7.98294 10.0504 8.4202 9.79869L8.42639 9.79513C10.3783 8.67198 12.2902 7.42313 14.3624 6.57592C19.7112 4.38626 25.1361 2.38267 30.5352 0.31655C30.8651 0.190119 31.2416 0.0771729 31.5814 0.113263C31.8625 0.142224 32.2752 0.348275 32.3447 0.5671C32.4165 0.793318 32.2252 1.26203 32.0092 1.39234C31.1496 1.91248 30.2569 2.39123 29.3364 2.79429C25.3815 4.52695 21.4091 6.22079 17.4541 7.95488C17.2288 8.05419 16.9865 8.36897 16.9531 8.61071C15.8251 16.5703 15.2652 28.5669 15.2864 36.5979C15.2681 37.9113 15.1793 39.2615 14.9628 40.5591C14.7843 41.6312 14.2088 42.4983 13.0866 42.8146C11.9348 43.1402 10.9257 42.7106 10.2625 41.8305C9.2421 40.4769 8.25753 39.0666 7.48328 37.5646C5.35069 33.4262 3.32758 29.2321 1.28341 25.0496C0.991495 24.4506 0.784104 23.8014 0.609665 23.1561C0.44638 22.5563 0.557079 21.9835 1.19227 21.6899C1.81544 21.4026 2.30468 21.7298 2.61219 22.2128C3.63244 23.8092 4.62383 25.4251 5.58513 27.0577C7.15493 29.7266 8.69002 32.4162 10.2418 35.094C10.3807 35.3323 10.5376 35.5603 10.6869 35.7935C10.8362 36.0268 11.5937 37.4799 11.8609 35.5994Z" fill="black"/>
<path d="M59.7147 22.9074C59.4766 24.0849 59.245 25.2514 59.002 26.4156C58.7678 27.5385 58.3285 28.0399 57.6428 27.9933C56.9872 27.9488 56.7033 27.4588 56.5309 26.3051C56.1134 23.504 56.084 20.7094 56.5846 17.9183C56.6644 17.4733 56.733 16.9842 56.9674 16.6183C57.202 16.2509 57.5942 15.8805 57.9953 15.7477C58.5281 15.5723 58.9394 15.9574 59.2068 16.4361C59.2632 16.5355 59.333 16.6287 59.4646 16.8274C60.0272 16.0388 60.54 15.3188 61.1428 14.4739C60.6492 14.4065 60.3266 14.3326 60.0037 14.3223C58.7092 14.2837 57.415 14.2813 56.1218 14.2241C55.8957 14.2135 55.5764 14.0547 55.4855 13.8718C55.3797 13.6576 55.3749 13.2629 55.5103 13.0892C55.7316 12.8047 56.0709 12.5474 56.4117 12.429C58.1665 11.8161 59.9873 11.6889 61.8073 11.9922C63.6359 12.2976 64.3903 13.8343 63.4399 15.4329C62.7214 16.6407 61.7771 17.7139 60.9284 18.843C60.7558 19.0732 60.5747 19.3 60.3777 19.5082C60.054 19.8489 60.1186 20.1353 60.4518 20.4223C61.0884 20.9695 61.7122 21.5332 62.352 22.0764C64.7289 24.0914 65.3847 26.6337 64.2672 29.4655C63.3993 31.6623 62.2636 33.7661 61.1185 35.8389C59.1576 39.387 57.1022 42.8835 55.0663 46.3901C54.8174 46.817 54.4993 47.2405 54.1188 47.5482C53.2855 48.2248 52.1772 47.9078 51.867 46.8814C51.7154 46.3807 51.7012 45.7773 51.8205 45.2644C52.3789 42.8531 53.5159 40.6713 54.7546 38.562C56.6969 35.2509 58.7376 31.9989 60.7326 28.7191C60.9194 28.4119 61.0841 28.0915 61.2335 27.7642C62.1705 25.7111 61.7006 24.1949 59.7147 22.9074Z" fill="black"/>
<path d="M103.379 22.2055C103.176 23.5128 103.011 24.6697 102.81 25.8195C102.711 26.3859 102.556 26.9424 102.407 27.498C102.286 27.9487 102.014 28.3855 101.525 28.2434C101.19 28.1455 100.809 27.7568 100.707 27.4186C100.543 26.8824 100.562 26.2813 100.561 25.7077C100.559 23.1678 100.948 20.688 101.761 18.2791C101.86 17.9844 101.959 17.6751 102.136 17.4279C102.282 17.2217 102.579 16.9383 102.742 16.9761C102.951 17.0244 103.205 17.3418 103.245 17.5773C103.355 18.2353 103.391 18.9097 103.404 19.578C103.413 20.0713 103.341 20.5646 103.308 21.0288C104.574 19.5585 105.839 18.1373 107.046 16.67C107.792 15.7631 107.72 15.456 106.594 15.1146C105.152 14.6768 103.663 14.3916 102.2 14.013C101.623 13.8629 101.029 13.7059 100.512 13.4244C100.231 13.2727 99.9179 12.8311 99.9493 12.5575C99.9795 12.2982 100.424 11.9113 100.714 11.886C103.426 11.6455 106.109 11.8248 108.582 13.0609C110.47 14.0047 110.969 15.7252 109.881 17.5305C109.282 18.5231 108.441 19.3755 107.674 20.2591C107.238 20.7621 106.729 21.2036 106.181 21.7434C106.471 21.9102 106.684 22.0498 106.908 22.1585C111.315 24.3099 112.356 27.6255 110.756 32.013C110.054 33.9415 109.072 35.7747 108.145 37.6133C107.204 39.4754 106.176 41.2937 105.179 43.1287C105.008 43.4443 104.822 43.7545 104.612 44.0456C104.122 44.7239 103.464 44.9928 102.817 44.8059C102.118 44.6038 101.57 43.9372 101.633 43.1038C101.692 42.3005 101.804 41.4519 102.128 40.727C103.449 37.7741 104.863 34.8626 106.24 31.9354C106.72 30.9169 107.26 29.92 107.655 28.868C108.222 27.3616 107.879 26.3242 106.618 25.3056C106.282 25.0344 105.925 24.7905 105.569 24.5451C104.706 23.9498 103.82 23.3801 103.379 22.2041L103.379 22.2055Z" fill="black"/>
<path d="M87.2649 23.6642C86.0423 24.33 84.96 24.314 83.7873 23.6081C83.789 24.5054 83.8096 25.2798 83.7856 26.0524C83.7722 26.4791 83.7474 26.9222 83.6229 27.325C83.3914 28.071 82.7122 28.4944 81.9656 28.4492C81.1875 28.4017 80.5484 27.8687 80.4506 27.0627C80.3881 26.5482 80.423 26.0047 80.512 25.4924C80.859 23.508 81.243 21.5305 81.6214 19.5511C81.6657 19.3174 81.711 19.0505 81.8521 18.8772C82.0787 18.5989 82.3767 18.2145 82.6639 18.1976C82.928 18.182 83.2239 18.5848 83.4916 18.8194C83.5921 18.9075 83.6253 19.0891 83.7319 19.1531C84.301 19.4947 84.8848 19.8128 85.5483 20.1872C86.1721 19.4709 86.8167 18.7069 87.4899 17.9668C87.8588 17.56 88.2279 17.1301 88.6734 16.8214C90.0134 15.8909 91.7656 16.7138 91.7774 18.3312C91.7901 20.0759 91.7396 21.8362 91.5166 23.5638C91.057 27.1278 90.48 30.6776 89.9131 34.2281C89.8097 34.8795 89.5949 35.5328 89.3119 36.1307C88.8959 37.0108 87.7507 37.1853 87.1895 36.3935C86.7529 35.7784 86.3379 34.9625 86.3536 34.2456C86.4059 31.6606 86.624 29.0788 86.8233 26.4985C86.8912 25.6193 87.0912 24.7496 87.2648 23.6656L87.2649 23.6642Z" fill="black"/>
<path d="M32.0584 25.181C32.6528 25.1921 33.1967 25.2025 33.7998 25.2143C33.8027 24.3737 33.7612 23.5877 33.8187 22.8103C33.8891 21.8561 34.03 20.9041 34.1664 19.9561C34.2505 19.3713 34.5714 19.1489 35.213 19.1461C36.2203 19.1423 36.9401 19.6175 37.667 20.3938C37.9107 19.7396 38.1064 19.1903 38.3232 18.6483C38.4379 18.3605 38.5191 17.9965 38.7391 17.8303C39.0524 17.5929 39.5175 17.3347 39.8475 17.4062C40.1192 17.4648 40.4796 17.995 40.4729 18.308C40.4453 19.5716 40.3493 20.8403 40.1623 22.0894C40.0443 22.8841 39.5581 23.515 38.7104 23.711C37.8523 23.9105 37.2285 23.5057 36.7288 22.8441C36.6351 22.7203 36.5048 22.6242 36.2507 22.382C36.251 23.2185 36.2265 23.8783 36.2555 24.5363C36.3138 25.8508 36.0001 26.1128 34.6847 26.2432C33.8511 26.3246 33.0453 26.6796 32.1972 26.9203C32.2325 28.0728 32.2766 29.2433 32.3003 30.4152C32.3065 30.7493 32.3399 31.1274 32.2026 31.4078C32.0433 31.7329 31.7256 32.1723 31.4466 32.1941C31.1647 32.217 30.6943 31.8494 30.5774 31.5476C30.3134 30.8611 30.2056 30.1137 30.0515 29.3874C29.9028 28.6847 29.7776 27.9779 29.6442 27.2849C28.4292 27.125 28.3244 27.1954 28.0992 28.2742C27.9028 29.2135 27.7234 30.157 27.5015 31.0901C27.2813 32.019 26.6489 32.4934 25.8753 32.3639C25.1231 32.2373 24.6296 31.5487 24.7706 30.6155C25.4183 26.2878 26.3159 22.0186 27.9427 17.9364C28.0557 17.6513 28.2229 17.3759 28.4124 17.1324C29.0395 16.3311 29.7669 16.4414 30.1383 17.3798C30.1639 17.4452 30.1538 17.5456 30.1988 17.5821C31.6779 18.8056 31.4842 20.5888 31.7352 22.2149C31.885 23.1806 31.9502 24.159 32.0582 25.1839L32.0584 25.181ZM28.7367 25.2474C29.3533 25.2313 29.4005 24.9775 29.0115 23.9425C28.913 24.4064 28.8267 24.8205 28.7367 25.2474Z" fill="black"/>
<path d="M146.932 17.2874C146.372 19.5411 145.769 21.9102 145.199 24.2874C145.015 25.0543 144.892 25.8385 144.782 26.6208C144.685 27.3087 145.009 27.7857 145.658 28.0146C146.699 28.3801 147.753 28.7091 148.791 29.0816C149.285 29.2589 149.784 29.4552 150.233 29.7231C150.875 30.1061 151.217 30.7014 151.145 31.4749C151.073 32.2527 150.621 32.8153 149.909 33.0095C147.402 33.6953 144.879 33.7949 142.603 32.3548C140.939 31.3029 140.181 30.5533 140.856 27.8138C141.545 25.0074 141.923 22.1222 142.632 19.3217C143.064 17.6178 143.821 15.9865 144.535 14.3695C144.677 14.0475 145.284 13.7995 145.699 13.7615C146.253 13.7119 146.62 14.13 146.687 14.7054C146.78 15.5111 146.842 16.3188 146.932 17.2889L146.932 17.2874Z" fill="black"/>
<path d="M39.8054 30.135C40.6196 26.5807 41.4196 23.0239 42.2595 19.4757C42.5024 18.4517 42.8465 17.4479 43.1802 16.4477C43.3367 15.9808 43.5995 15.5231 44.2049 15.6419C44.7675 15.7533 44.8583 16.2568 44.8438 16.7166C44.8181 17.5527 44.6987 18.3863 44.6759 19.2226C44.6671 19.5239 44.8094 19.8346 44.9048 20.1348C45.3171 21.4272 45.8133 22.6982 46.1314 24.0142C46.4352 25.2699 46.5698 26.5668 46.7502 27.8497C46.8092 28.2729 46.9108 28.5865 47.4051 28.6236C47.5431 28.6336 47.6809 28.7057 47.8125 28.7643C48.4614 29.0611 48.5641 29.5394 47.9321 29.8492C47.1083 30.2535 47.2188 30.7844 47.3376 31.4792C47.544 32.6831 47.6712 33.9029 47.8015 35.1186C47.8396 35.4724 47.8678 35.8819 47.7275 36.1838C47.5668 36.529 47.2347 36.9861 46.9332 37.0207C46.6272 37.0564 46.0847 36.7066 45.968 36.402C45.5571 35.3307 45.277 34.2082 44.964 33.1007C44.7684 32.4076 44.5788 31.712 44.4346 31.0081C44.3459 30.5755 44.1437 30.3948 43.7029 30.4179C43.4172 30.4334 43.1144 30.3248 42.8457 30.3849C42.6239 30.4353 42.4393 30.6517 42.2395 30.7976C42.2243 30.8081 42.2275 30.843 42.2201 30.8656C41.8954 31.8418 41.4056 32.263 40.7462 32.1316C40.0825 31.9999 39.8401 31.4753 39.9363 30.3829C39.9415 30.311 39.9467 30.2391 39.9518 30.1673C39.9035 30.1566 39.8567 30.1445 39.8083 30.1338L39.8054 30.135ZM43.3907 26.4182C43.3473 26.4194 43.3037 26.422 43.2603 26.4232C43.1623 26.9001 43.0644 27.3755 42.9614 27.8824L43.6857 27.9347C43.5783 27.3809 43.4845 26.9002 43.3906 26.4196L43.3907 26.4182Z" fill="black"/>
<path d="M135.564 27.4693C134.669 29.0617 133.243 29.7216 131.726 30.2534C131.21 30.4343 130.645 30.4889 130.347 30.0224C130.107 29.6468 129.915 29.0146 130.07 28.6531C130.545 27.5417 131.122 26.4551 131.807 25.4615C132.233 24.8465 132.369 24.3247 132.057 23.6781C131.725 22.9866 131.353 22.314 131.036 21.615C130.451 20.3231 130.632 19.1039 131.592 18.0767C132.638 16.9575 133.948 16.4395 135.494 16.7592C135.706 16.8034 135.991 17.058 136.019 17.2478C136.045 17.426 135.812 17.6966 135.626 17.8392C134.948 18.3595 134.208 18.8044 133.56 19.3558C133.064 19.7779 133.025 20.3573 133.402 20.9162C133.951 21.7272 134.51 22.5304 135.098 23.3862C135.379 22.7 135.526 22.0187 135.904 21.5085C136.31 20.9586 136.881 20.4739 137.481 20.1387C137.971 19.865 138.472 20.2391 138.497 20.7928C138.57 22.4205 138.644 24.0511 138.642 25.6805C138.641 26.3927 138.484 27.1095 138.344 27.8144C138.212 28.4781 137.923 29.0799 137.147 29.1626C136.365 29.2463 136.073 28.6719 135.835 28.0638C135.775 27.9093 135.698 27.7621 135.563 27.4692L135.564 27.4693Z" fill="black"/>
<path d="M127.106 28.0635C126.57 26.8126 126.057 25.6141 125.468 24.241C125.247 24.8477 125.12 25.2763 124.938 25.6778C124.552 26.5268 123.866 26.8818 123.093 26.6685C122.411 26.4806 121.939 25.8369 122.131 24.9622C122.612 22.7664 123.166 20.5845 123.789 18.4249C123.928 17.9437 124.42 17.53 124.827 17.1708C125.31 16.7448 125.833 16.9198 126.32 17.4302C128.376 19.5853 129.135 22.294 129.566 25.1162C129.729 26.1913 129.726 27.3222 129.596 28.4021C129.447 29.6425 128.445 30.2708 127.462 29.8863C127.147 29.7639 126.835 29.5175 126.631 29.2456C126.145 28.5965 126.248 28.3396 127.105 28.0634L127.106 28.0635Z" fill="black"/>
<path d="M68.0851 24.8495C67.9461 25.374 67.8352 25.9092 67.6609 26.4224C67.4847 26.9414 67.3367 27.5114 67.0038 27.9193C66.7708 28.2059 66.2391 28.4073 65.8596 28.3799C65.3423 28.3426 65.1326 27.8247 65.195 27.3409C65.5531 24.5424 65.9398 21.7474 66.325 18.9538C66.35 18.7664 66.3902 18.5511 66.5013 18.4118C66.7939 18.0414 67.0764 17.5504 67.4693 17.4112C67.705 17.3285 68.142 17.818 68.503 18.0608C68.965 17.5047 68.6218 16.8356 67.6368 16.5911C67.3572 16.5218 67.1006 16.3545 66.8336 16.2312C67.0745 15.8961 67.2489 15.4608 67.5706 15.2471C68.3688 14.7168 69.7413 14.9358 70.6026 15.6322C71.464 16.3286 71.9171 17.4361 71.4671 18.386C71.0305 19.3109 70.3355 20.1131 69.6923 21.0577C70.0765 21.6994 70.6274 22.5121 71.066 23.3816C71.4956 24.2347 71.8379 25.1363 72.16 26.0365C72.385 26.6624 72.3577 27.3004 71.6837 27.6721C71.002 28.0491 70.4638 27.6794 70.0413 27.1881C69.4628 26.5164 68.9413 25.7969 68.4043 25.0907C68.3343 24.9989 68.3149 24.8675 68.2725 24.7547C68.2096 24.7862 68.1465 24.8192 68.085 24.8509L68.0851 24.8495Z" fill="black"/>
<path d="M117.561 20.866C118.262 21.5263 118.958 22.1111 119.565 22.7762C120.046 23.3006 120.474 23.8921 120.823 24.511C121.13 25.059 121.156 25.6937 120.627 26.1625C120.093 26.6354 119.511 26.4749 118.966 26.1365C118.376 25.7703 117.787 25.3998 117.214 25.0074C116.662 24.6295 116.133 24.2186 115.52 23.7683C115.39 24.2011 115.283 24.6022 115.149 24.9956C114.891 25.7498 114.365 26.1164 113.707 26.0241C113.083 25.9371 112.578 25.4528 112.657 24.6914C112.803 23.2977 113.088 21.9155 113.367 20.5401C113.477 20.0077 113.704 19.494 113.934 18.9962C114.054 18.7376 114.282 18.5229 114.486 18.3123C114.648 18.1449 114.846 18.0118 115.031 17.8691C115.825 17.259 116.614 16.6399 117.422 16.0496C117.628 15.8983 117.896 15.8195 118.146 15.7436C119.143 15.4385 119.974 15.6545 120.409 16.3172C120.849 16.9861 120.789 17.8905 120.109 18.6359C119.516 19.2851 118.802 19.8259 118.137 20.4092C117.963 20.5628 117.774 20.6994 117.561 20.8675L117.561 20.866Z" fill="black"/>
<path d="M23.7186 22.3367C23.4255 23.1535 23.172 24.2447 22.6612 25.196C21.7532 26.8871 19.9874 26.8333 19.0682 25.1576C18.8728 24.8025 18.7155 24.4199 18.5991 24.0315C18.3973 23.364 18.3319 22.6889 17.7236 22.1509C17.4329 21.8944 17.3666 21.1919 17.4583 20.7434C17.5832 20.1327 17.8616 19.4984 18.2425 19.0058C19.0184 18.0028 20.0616 17.4006 21.384 17.7142C22.6622 18.0189 23.2231 19.0345 23.4981 20.2072C23.6383 20.8068 23.6316 21.4405 23.7187 22.3353L23.7186 22.3367ZM20.7008 24.0157C21.2198 23.0303 21.2922 22.1066 21.2224 21.1727C21.1978 20.8531 21.0649 20.5126 20.8848 20.2468C20.7921 20.1101 20.4657 20.0287 20.2887 20.0781C20.106 20.1285 19.8305 20.3816 19.8435 20.5227C19.9491 21.6803 20.0378 22.8525 20.7008 24.0157Z" fill="black"/>
<path d="M75.8079 22.2938C76.0689 21.2002 76.3283 20.108 76.5879 19.0144C76.6151 18.8979 76.6324 18.7778 76.661 18.6614C76.9129 17.6741 77.3611 17.1892 78.0073 17.2027C78.6146 17.2162 79.1045 17.6936 79.2479 18.669C79.5138 20.4883 79.5983 22.3204 78.6859 24.0113C78.4207 24.5035 78.0315 24.9724 77.5958 25.3238C76.7354 26.0158 75.5134 25.8727 74.8202 25.0093C73.6325 23.5308 73.4083 21.794 73.6279 19.9723C73.6463 19.8176 73.8095 19.5982 73.945 19.5632C74.0877 19.5273 74.3301 19.6315 74.4352 19.7561C74.6162 19.9714 74.7442 20.2392 74.8582 20.5003C75.1147 21.0895 75.3475 21.687 75.5906 22.2824C75.664 22.2863 75.736 22.29 75.8095 22.2925L75.8079 22.2938Z" fill="black"/>
<path d="M138.154 14.4375C138.197 13.961 138.501 13.6737 139.037 13.6706C139.655 13.6675 140.155 14.3508 140.078 15.2193C140.058 15.4403 139.697 15.7711 139.459 15.8045C138.935 15.8794 138.134 15.011 138.155 14.4362L138.154 14.4375Z" fill="black"/>
</svg>
